<svg xmlns="http://www.w3.org/2000/svg" xmlns:xlink="http://www.w3.org/1999/xlink" viewBox="0 0 134.23 39.12"><defs><style>.cls-1{fill:#fff;}.cls-2{fill:#a7a6a6;}.cls-3{fill:#010101;}.cls-4{fill:url(#linear-gradient);}</style><linearGradient id="linear-gradient" x1="-397.3" y1="325.81" x2="-397.3" y2="334.62" gradientTransform="matrix(16.02, 0, 0, -16.01, 6462.1, 5255)" gradientUnits="userSpaceOnUse"><stop offset="0" stop-color="#1a1a1a" stop-opacity="0.1"/><stop offset="0.12" stop-color="#212121" stop-opacity="0.15"/><stop offset="0.31" stop-color="#353635" stop-opacity="0.23"/><stop offset="0.53" stop-color="#575858" stop-opacity="0.32"/><stop offset="0.78" stop-color="#858585" stop-opacity="0.42"/><stop offset="1" stop-color="#b4b4b4" stop-opacity="0.51"/></linearGradient></defs><title>apple</title><g id="Layer_2" data-name="Layer 2"><g id="Layer_1-2" data-name="Layer 1"><path class="cls-1" d="M133.34,34.5a3.78,3.78,0,0,1-3.81,3.75H4.7A3.78,3.78,0,0,1,.89,34.5V4.62A3.78,3.78,0,0,1,4.7.87H129.52a3.79,3.79,0,0,1,3.82,3.75h0V34.5Z"/><path class="cls-2" d="M129.53,39.12H4.7A4.66,4.66,0,0,1,0,34.5V4.62A4.67,4.67,0,0,1,4.7,0H129.52a4.67,4.67,0,0,1,4.71,4.62V34.5a4.67,4.67,0,0,1-4.7,4.62Z"/><path class="cls-3" d="M133.34,34.5a3.78,3.78,0,0,1-3.81,3.75H4.7A3.78,3.78,0,0,1,.89,34.5V4.62A3.78,3.78,0,0,1,4.7.87H129.52a3.79,3.79,0,0,1,3.82,3.75h0V34.5Z"/><path class="cls-1" d="M30,19.36a5.65,5.65,0,0,1,2.75-4.76,6,6,0,0,0-4.65-2.48c-2-.2-3.86,1.16-4.85,1.16s-2.56-1.14-4.21-1.1A6.19,6.19,0,0,0,13.8,15.3c-2.26,3.84-.58,9.48,1.58,12.58,1.08,1.52,2.35,3.22,4,3.16s2.22-1,4.17-1,2.5,1,4.18,1,2.83-1.52,3.87-3.06a12.38,12.38,0,0,0,1.77-3.54,5.53,5.53,0,0,1-3.4-5Zm-3.18-9.28a5.54,5.54,0,0,0,1.3-4A5.87,5.87,0,0,0,24.35,8,5.27,5.27,0,0,0,23,11.84,4.81,4.81,0,0,0,26.79,10.08Z"/><path class="cls-4" d="M129.53,0H62.67L88.85,39.12h40.68a4.67,4.67,0,0,0,4.7-4.62V4.62A4.67,4.67,0,0,0,129.53,0Z"/><path class="cls-1" d="M53.39,30.82H51.13L49.89,27h-4.3l-1.18,3.82h-2.2l4.26-13h2.64Zm-3.87-5.43L48.4,22c-.12-.34-.34-1.16-.67-2.45h0c-.13.55-.34,1.37-.63,2.45L46,25.39ZM64.33,26A5.28,5.28,0,0,1,63,29.8,3.94,3.94,0,0,1,60.06,31a3,3,0,0,1-2.72-1.33v4.93H55.22V24.52c0-1,0-2-.08-3.09H57l.12,1.49h0a3.82,3.82,0,0,1,6-.37A5.15,5.15,0,0,1,64.33,26Zm-2.16.08a3.82,3.82,0,0,0-.63-2.26,2.27,2.27,0,0,0-3.27-.42,2.37,2.37,0,0,0-.84,1.35,2.66,2.66,0,0,0-.09.63V27A2.51,2.51,0,0,0,58,28.69a2.14,2.14,0,0,0,1.66.7,2.19,2.19,0,0,0,1.87-.91A3.89,3.89,0,0,0,62.17,26.09ZM75.31,26A5.28,5.28,0,0,1,74,29.8,4,4,0,0,1,71,31a3,3,0,0,1-2.72-1.33v4.93H66.2V24.52c0-1,0-2-.08-3.09H68l.12,1.49h0a3.82,3.82,0,0,1,6-.37A5.15,5.15,0,0,1,75.31,26Zm-2.16.08a3.82,3.82,0,0,0-.63-2.26,2.27,2.27,0,0,0-3.27-.42,2.37,2.37,0,0,0-.84,1.35,3,3,0,0,0-.1.63V27A2.52,2.52,0,0,0,69,28.69a2.14,2.14,0,0,0,1.66.7,2.19,2.19,0,0,0,1.87-.91A4,4,0,0,0,73.15,26.09Zm14.43,1.08a3.47,3.47,0,0,1-1.17,2.71A5.33,5.33,0,0,1,82.8,31a6.43,6.43,0,0,1-3.43-.81l.49-1.73a6,6,0,0,0,3.07.81,2.92,2.92,0,0,0,1.86-.53,1.72,1.72,0,0,0,.67-1.42A1.81,1.81,0,0,0,84.91,26a5.17,5.17,0,0,0-1.82-1q-3.48-1.27-3.48-3.73a3.3,3.3,0,0,1,1.22-2.63,5,5,0,0,1,3.26-1,6.54,6.54,0,0,1,3,.62l-.53,1.7a5.32,5.32,0,0,0-2.54-.6,2.63,2.63,0,0,0-1.76.54,1.54,1.54,0,0,0-.53,1.18,1.59,1.59,0,0,0,.61,1.28,7.06,7.06,0,0,0,1.92,1,6.62,6.62,0,0,1,2.52,1.58,3.27,3.27,0,0,1,.8,2.26Zm7-4.17H92.28v4.56c0,1.16.41,1.74,1.24,1.74a4.1,4.1,0,0,0,.94-.1l.06,1.58a4.74,4.74,0,0,1-1.65.23,2.58,2.58,0,0,1-2-.75,3.66,3.66,0,0,1-.71-2.53V23H88.8V21.43h1.39V19.71l2.09-.62v2.34h2.34V23Zm10.52,3.05a5.15,5.15,0,0,1-1.25,3.56,4.55,4.55,0,0,1-3.5,1.42A4.29,4.29,0,0,1,97,29.66a4.93,4.93,0,0,1-1.25-3.45,5.06,5.06,0,0,1,1.29-3.58,4.52,4.52,0,0,1,3.47-1.39,4.39,4.39,0,0,1,3.37,1.37A4.88,4.88,0,0,1,105.14,26.05Zm-2.2.05a4.16,4.16,0,0,0-.56-2.22,2.22,2.22,0,0,0-3.85,0A4.24,4.24,0,0,0,98,26.14a4.11,4.11,0,0,0,.57,2.21,2.12,2.12,0,0,0,1.92,1.12,2.15,2.15,0,0,0,1.91-1.13,4.2,4.2,0,0,0,.58-2.24Zm9.1-2.83a3.71,3.71,0,0,0-.67-.06,2,2,0,0,0-1.73.83,3.12,3.12,0,0,0-.53,1.86v4.92H107V24.39c0-1,0-2-.06-3h1.85l.08,1.8h0A3.31,3.31,0,0,1,110,21.74a2.65,2.65,0,0,1,1.54-.5,2.93,2.93,0,0,1,.53,0v2Zm9.49,2.41a6,6,0,0,1-.08.95h-6.36a2.69,2.69,0,0,0,.92,2.13,3.21,3.21,0,0,0,2.08.65,7,7,0,0,0,2.57-.44l.34,1.45a8.23,8.23,0,0,1-3.2.58A4.42,4.42,0,0,1,113,26.27a5.31,5.31,0,0,1,1.18-3.54,4.11,4.11,0,0,1,3.34-1.5,3.56,3.56,0,0,1,3.12,1.5A5,5,0,0,1,121.53,25.68Zm-2-.54a2.72,2.72,0,0,0-.41-1.6,1.86,1.86,0,0,0-1.69-.87,2,2,0,0,0-1.69.85,3.05,3.05,0,0,0-.62,1.62Z"/><path class="cls-1" d="M45,13.2a13.36,13.36,0,0,1-1.53-.08V6.83a12.13,12.13,0,0,1,1.8-.14c2.43,0,3.55,1.18,3.55,3.1C48.8,12,47.48,13.2,45,13.2Zm.35-5.7a4.19,4.19,0,0,0-.84.07v4.78a5.56,5.56,0,0,0,.71,0,2.28,2.28,0,0,0,2.5-2.56A2.11,2.11,0,0,0,45.33,7.5Zm7,5.75A2.22,2.22,0,0,1,50,10.87a2.27,2.27,0,0,1,2.34-2.44,2.2,2.2,0,0,1,2.26,2.37A2.28,2.28,0,0,1,52.29,13.25Zm0-4.07c-.75,0-1.23.7-1.23,1.66s.49,1.65,1.22,1.65,1.23-.74,1.23-1.67-.49-1.64-1.22-1.64Zm10.12-.65L61,13.14H60l-.61-2c-.15-.49-.27-1-.37-1.49h0a9.57,9.57,0,0,1-.38,1.49l-.65,2H57L55.65,8.53h1.07l.53,2.19c.13.52.23,1,.32,1.48h0c.08-.39.2-.87.38-1.47l.67-2.2h.85l.64,2.15c.15.53.28,1,.38,1.52h0a15.44,15.44,0,0,1,.32-1.52l.57-2.15Zm5.4,4.61h-1V10.49c0-.81-.31-1.22-.94-1.22a1.07,1.07,0,0,0-1,1.13v2.74h-1V9.85c0-.41,0-.85,0-1.32h.92l0,.71h0a1.7,1.7,0,0,1,1.49-.81c1,0,1.63.74,1.63,2v2.76Zm2.87,0h-1V6.41h1Zm3.8.11a2.22,2.22,0,0,1-2.26-2.38A2.27,2.27,0,0,1,74.6,8.43a2.2,2.2,0,0,1,2.26,2.37A2.28,2.28,0,0,1,74.52,13.25Zm0-4.07c-.75,0-1.23.7-1.23,1.66s.49,1.65,1.22,1.65,1.23-.74,1.23-1.67-.48-1.64-1.22-1.64Zm6.41,4-.08-.53h0a1.62,1.62,0,0,1-1.38.64,1.35,1.35,0,0,1-1.43-1.36c0-1.14,1-1.73,2.74-1.73v-.08c0-.61-.33-.92-1-.92a2.21,2.21,0,0,0-1.23.35l-.21-.68A3.07,3.07,0,0,1,80,8.43a1.66,1.66,0,0,1,1.84,1.91V12a6.37,6.37,0,0,0,.07,1.1Zm-.14-2.3c-1.16,0-1.74.28-1.74.93a.66.66,0,0,0,.71.73,1,1,0,0,0,1-.94Zm6.08,2.3,0-.74h0a1.58,1.58,0,0,1-1.51.85,2.12,2.12,0,0,1-2-2.36,2.2,2.2,0,0,1,2.06-2.46,1.42,1.42,0,0,1,1.32.63h0V6.41h1V11.9c0,.44,0,.86,0,1.24Zm-.16-2.71a1.12,1.12,0,0,0-1.1-1.2c-.77,0-1.24.67-1.24,1.62s.49,1.57,1.22,1.57a1.16,1.16,0,0,0,1.12-1.22v-.77Zm7.66,2.82a2.22,2.22,0,0,1-2.26-2.38,2.27,2.27,0,0,1,2.34-2.44,2.2,2.2,0,0,1,2.26,2.37,2.28,2.28,0,0,1-2.34,2.45Zm0-4.07c-.75,0-1.23.7-1.23,1.66s.49,1.65,1.22,1.65,1.23-.74,1.23-1.67-.48-1.64-1.22-1.64Zm7.91,4h-1V10.49c0-.81-.32-1.22-.94-1.22a1.08,1.08,0,0,0-1.05,1.13v2.74h-1V9.85c0-.41,0-.85,0-1.32h.92l0,.71h0a1.7,1.7,0,0,1,1.48-.81c1,0,1.64.74,1.64,2Zm7-3.84h-1.15v2.24c0,.57.2.85.61.85a2,2,0,0,0,.46-.05l0,.78a2.23,2.23,0,0,1-.81.12c-.82,0-1.31-.45-1.31-1.62V9.3h-.69V8.53h.69V7.68l1-.3V8.53h1.15V9.3Zm5.52,3.84h-1V10.51c0-.82-.32-1.24-.95-1.24a1,1,0,0,0-1,1.09v2.78h-1V6.41h1V9.18h0a1.59,1.59,0,0,1,1.41-.75c1,0,1.6.76,1.6,2v2.74Zm5.65-2.06h-3.13a1.34,1.34,0,0,0,1.48,1.37,3.64,3.64,0,0,0,1.27-.22l.16.71a4,4,0,0,1-1.57.29,2.16,2.16,0,0,1-2.34-2.33,2.27,2.27,0,0,1,2.22-2.48,2,2,0,0,1,2,2.2,1.79,1.79,0,0,1,0,.46Zm-1-.73c0-.71-.37-1.21-1-1.21a1.22,1.22,0,0,0-1.14,1.21Z"/></g></g></svg>